# xmcd
#
# Track frame offsets: 
#        150
#        14613
#        36575
#        49210
#        62320
#        79380
#        96999
#        110323
#        132967
#        159689
#        173536
#        194257
#        207881
#        220292
#        247844
#        264740
#        281279
#        297768
#
# Disc length: 4277 seconds
#
# Revision: 0
# Processed by: cddbd v1.5.2PL0 Copyright (c) Steve Scherf et al.
# Submitted via: ExactAudioCopy v0.95a5
#
DISCID=0610b312
DTITLE=Games Gang - Straight Shooter - Passin' Thru
DYEAR=1972
DGENRE=rock
TTITLE0=Madness
TTITLE1=Kick back man
TTITLE2=Get her back again
TTITLE3=Looking for my Lady
TTITLE4=Getting old
TTITLE5=I'll tell you why
TTITLE6=Hary Hypochondriac
TTITLE7=Let me go home
TTITLE8=My door is open
TTITLE9=Ain't Seen Nothing Yet
TTITLE10=One Way Street
TTITLE11=Had Enough
TTITLE12=Up to Yourself
TTITLE13=Everybody Needs a Hero
TTITLE14=Run Run Run
TTITLE15=Things I Want to Say to You
TTITLE16=Out of Control
TTITLE17=Drifting Girl
EXTD=
EXTT0=
EXTT1=
EXTT2=
EXTT3=
EXTT4=
EXTT5=
EXTT6=
EXTT7=
EXTT8=
EXTT9=
EXTT10=
EXTT11=
EXTT12=
EXTT13=
EXTT14=
EXTT15=
EXTT16=
EXTT17=
PLAYORDER=
